P3
# Created by GIMP version 2.10.22 PNM plug-in
1024 1
255
25
25
25
25
25
25
26
26
26
26
26
26
26
26
26
27
27
27
27
27
27
28
28
28
28
28
28
28
28
28
29
29
29
29
29
29
30
30
30
30
30
30
30
30
30
31
31
31
31
31
31
32
32
32
32
32
32
33
33
33
33
33
33
33
33
33
34
34
34
34
34
34
35
35
35
35
35
35
35
35
35
36
36
36
36
36
36
37
37
37
37
37
37
37
37
37
38
38
38
38
38
38
39
39
39
39
39
39
39
39
39
40
40
40
40
40
40
41
41
41
41
41
41
41
41
41
42
42
42
42
42
42
43
43
43
43
43
43
43
43
43
44
44
44
44
44
44
45
45
45
45
45
45
45
45
45
46
46
46
46
46
46
47
47
47
47
47
47
47
47
47
48
48
48
48
48
48
49
49
49
49
49
49
49
49
49
50
50
50
50
50
50
51
51
51
51
51
51
51
51
51
52
52
52
52
52
52
53
53
53
53
53
53
53
53
53
54
54
54
54
54
54
55
55
55
55
55
55
55
55
55
56
56
56
56
56
56
57
57
57
57
57
57
58
58
58
58
58
58
58
58
58
59
59
59
59
59
59
60
60
60
60
60
60
60
60
60
61
61
61
61
61
61
62
62
62
62
62
62
62
62
62
63
63
63
63
63
63
63
63
63
64
64
64
64
64
64
65
65
65
65
65
65
65
65
65
66
66
66
66
66
66
67
67
67
67
67
67
67
67
67
68
68
68
68
68
68
69
69
69
69
69
69
69
69
69
70
70
70
70
70
70
71
71
71
71
71
71
71
71
71
72
72
72
72
72
72
73
73
73
73
73
73
73
73
73
74
74
74
74
74
74
75
75
75
75
75
75
75
75
75
76
76
76
76
76
76
77
77
77
77
77
77
77
77
77
78
78
78
78
78
78
79
79
79
79
79
79
79
79
79
80
80
80
80
80
80
81
81
81
81
81
81
81
81
81
82
82
82
82
82
82
83
83
83
83
83
83
83
83
83
84
84
84
84
84
84
85
85
85
85
85
85
85
85
85
86
86
86
86
86
86
87
87
87
87
87
87
87
87
87
88
88
88
88
88
88
89
89
89
89
89
89
90
90
90
90
90
90
90
90
90
91
91
91
91
91
91
92
92
92
92
92
92
92
92
92
93
93
93
93
93
93
94
94
94
94
94
94
94
94
94
95
95
95
95
95
95
96
96
96
96
96
96
96
96
96
97
97
97
97
97
97
98
98
98
98
98
98
98
98
98
99
99
99
99
99
99
100
100
100
100
100
100
100
100
100
101
101
101
101
101
101
102
102
102
102
102
102
102
102
102
103
103
103
103
103
103
104
104
104
104
104
104
104
104
104
105
105
105
105
105
105
106
106
106
106
106
106
106
106
106
107
107
107
107
107
107
108
108
108
108
108
108
108
108
108
109
109
109
109
109
109
110
110
110
110
110
110
110
110
110
111
111
111
111
111
111
112
112
112
112
112
112
112
112
112
113
113
113
113
113
113
114
114
114
114
114
114
114
114
114
115
115
115
115
115
115
116
116
116
116
116
116
117
117
117
117
117
117
117
117
117
118
118
118
118
118
118
119
119
119
119
119
119
119
119
119
120
120
120
120
120
120
121
121
121
121
121
121
121
121
121
122
122
122
122
122
122
123
123
123
123
123
123
123
123
123
124
124
124
124
124
124
125
125
125
125
125
125
125
125
125
126
126
126
126
126
126
127
127
127
127
127
127
127
127
127
128
128
128
128
128
128
128
128
128
129
129
129
129
129
129
130
130
130
130
130
130
130
130
130
131
131
131
131
131
131
132
132
132
132
132
132
132
132
132
133
133
133
133
133
133
134
134
134
134
134
134
134
134
134
135
135
135
135
135
135
136
136
136
136
136
136
136
136
136
137
137
137
137
137
137
138
138
138
138
138
138
138
138
138
139
139
139
139
139
139
140
140
140
140
140
140
140
140
140
141
141
141
141
141
141
142
142
142
142
142
142
142
142
142
143
143
143
143
143
143
144
144
144
144
144
144
144
144
144
145
145
145
145
145
145
146
146
146
146
146
146
147
147
147
147
147
147
147
147
147
148
148
148
148
148
148
149
149
149
149
149
149
149
149
149
150
150
150
150
150
150
151
151
151
151
151
151
151
151
151
152
152
152
152
152
152
153
153
153
153
153
153
153
153
153
154
154
154
154
154
154
155
155
155
155
155
155
155
155
155
156
156
156
156
156
156
157
157
157
157
157
157
157
157
157
158
158
158
158
158
158
159
159
159
159
159
159
159
159
159
160
160
160
160
160
160
161
161
161
161
161
161
161
161
161
162
162
162
162
162
162
163
163
163
163
163
163
163
163
163
164
164
164
164
164
164
165
165
165
165
165
165
165
165
165
166
166
166
166
166
166
167
167
167
167
167
167
167
167
167
168
168
168
168
168
168
169
169
169
169
169
169
169
169
169
170
170
170
170
170
170
171
171
171
171
171
171
171
171
171
172
172
172
172
172
172
173
173
173
173
173
173
174
174
174
174
174
174
174
174
174
175
175
175
175
175
175
176
176
176
176
176
176
176
176
176
177
177
177
177
177
177
178
178
178
178
178
178
178
178
178
179
179
179
179
179
179
180
180
180
180
180
180
180
180
180
181
181
181
181
181
181
182
182
182
182
182
182
182
182
182
183
183
183
183
183
183
184
184
184
184
184
184
184
184
184
185
185
185
185
185
185
186
186
186
186
186
186
186
186
186
187
187
187
187
187
187
188
188
188
188
188
188
188
188
188
189
189
189
189
189
189
190
190
190
190
190
190
190
190
190
191
191
191
191
191
191
191
191
191
192
192
192
192
192
192
193
193
193
193
193
193
193
193
193
194
194
194
194
194
194
195
195
195
195
195
195
195
195
195
196
196
196
196
196
196
197
197
197
197
197
197
197
197
197
198
198
198
198
198
198
199
199
199
199
199
199
199
199
199
200
200
200
200
200
200
201
201
201
201
201
201
201
201
201
202
202
202
202
202
202
203
203
203
203
203
203
203
203
203
204
204
204
204
204
204
205
205
205
205
205
205
206
206
206
206
206
206
206
206
206
207
207
207
207
207
207
208
208
208
208
208
208
208
208
208
209
209
209
209
209
209
210
210
210
210
210
210
210
210
210
211
211
211
211
211
211
212
212
212
212
212
212
212
212
212
213
213
213
213
213
213
214
214
214
214
214
214
214
214
214
215
215
215
215
215
215
216
216
216
216
216
216
216
216
216
217
217
217
217
217
217
218
218
218
218
218
218
218
218
218
219
219
219
219
219
219
220
220
220
220
220
220
220
220
220
221
221
221
221
221
221
222
222
222
222
222
222
222
222
222
223
223
223
223
223
223
223
223
223
223
223
223
223
222
223
223
223
223
223
223
223
223
222
223
222
222
223
222
221
222
221
221
222
221
220
221
220
219
220
219
219
220
218
217
219
217
216
218
216
215
217
215
214
216
213
212
214
211
210
213
209
208
211
207
205
209
205
203
208
203
200
205
200
197
203
197
194
201
194
190
198
191
187
195
186
182
192
183
178
188
178
173
184
173
167
180
168
162
176
162
155
171
155
147
166
148
139
161
140
130
154
132
119
148
121
106
140
109
91
131
95
71
122
77
41
113
73
30
110
73
31
111
72
30
111
73
31
112
73
31
112
72
32
113
73
34
113
73
34
114
72
34
114
72
34
115
73
35
115
72
35
116
73
36
116
72
36
116
72
38
117
71
38
117
71
39
118
72
39
118
71
40
119
72
41
120
71
40
120
71
41
120
71
42
121
71
43
121
72
44
122
71
44
122
71
43
122
71
44
123
71
44
123
71
46
124
70
46
124
70
47
124
71
48
124
71
49
125
71
49
125
71
50
126
70
50
126
70
50
127
69
51
127
69
51
127
69
52
127
70
54
128
70
54
128
70
55
129
69
55
129
70
55
129
69
56
129
69
56
129
68
57
130
69
58
130
68
59
131
67
59
131
68
59
131
68
60
131
67
60
132
67
60
132
67
61
132
67
62
132
66
61
132
67
63
133
66
62
133
66
64
133
67
65
133
65
65
134
65
65
134
65
66
134
65
66
134
65
67
135
64
67
135
64
68
135
64
68
135
64
68
135
63
69
135
63
69
135
63
71
136
63
71
136
62
72
136
62
72
136
62
73
137
63
74
137
62
74
137
61
74
137
62
75
137
61
75
137
61
76
137
61
76
137
61
76
137
60
77
138
61
78
138
60
78
138
61
79
138
60
80
138
60
81
138
60
81
138
60
81
138
59
82
139
59
83
139
59
83
139
59
84
139
58
84
139
58
85
139
58
85
139
58
86
139
58
85
139
57
86
139
57
86
139
57
87
140
57
88
140
57
88
140
56
88
140
56
89
140
56
89
140
55
90
140
54
90
140
54
90
140
55
91
140
54
91
140
54
92
140
54
92
140
53
93
140
54
93
140
53
94
141
53
94
141
52
95
141
52
95
141
52
96
141
52
96
141
52
96
141
52
97
141
52
97
141
51
98
141
51
98
141
50
99
141
51
99
141
50
100
141
50
100
141
50
101
141
49
101
141
50
102
141
50
102
141
49
102
141
48
103
141
49
103
141
49
104
141
49
104
141
48
105
141
48
105
141
48
106
141
47
106
141
47
107
142
47
107
142
47
108
142
46
108
142
47
109
142
46
109
142
46
110
142
46
110
142
46
111
142
46
111
142
46
111
142
45
112
142
45
112
142
45
113
142
45
113
142
45
114
142
45
114
142
44
115
142
44
115
142
44
116
142
44
116
142
43
117
142
43
117
142
43
117
142
43
118
142
43
118
142
43
119
142
42
119
142
42
120
142
41
120
142
42
121
142
41
121
142
41
122
142
41
122
142
40
122
142
40
122
142
41
122
142
41
123
142
41
123
142
40
124
142
40
124
142
40
125
142
41
125
142
40
126
142
39
126
142
39
127
142
39
127
142
38
128
142
39
128
142
39
128
142
39
129
142
39
129
142
38
130
142
38
130
142
38
131
141
38
131
141
38
132
141
37
132
141
37
133
141
36
133
141
37
134
141
37
134
141
37
135
141
36
135
141
37
136
141
36
136
141
36
137
141
36
137
141
36
137
141
36
137
141
35
137
141
35
138
141
36
138
141
35
139
141
35
139
141
34
140
141
35
140
141
35
141
141
35
141
140
34
142
140
34
142
140
35
142
140
34
143
140
34
143
140
34
144
140
33
144
140
33
145
140
33
145
140
33
146
140
32
146
140
32
147
140
32
147
139
32
148
139
32
148
139
33
148
139
32
149
139
32
149
139
33
150
139
32
150
139
31
151
138
31
151
138
32
152
138
31
152
138
31
153
138
31
153
138
32
153
138
30
153
138
31
153
138
31
154
137
31
154
137
32
155
137
31
156
137
31
156
137
32
156
137
31
157
136
31
157
136
31
158
136
31
158
136
31
159
136
32
159
136
32
160
136
32
160
135
32
161
135
33
161
135
32
162
135
33
162
134
32
162
134
32
163
134
33
163
134
32
164
133
33
164
133
34
165
133
33
165
133
34
166
133
34
166
133
36
167
133
34
167
132
35
167
132
36
167
132
35
167
132
37
168
131
36
168
131
36
169
130
36
169
130
37
170
130
36
170
130
37
171
130
38
171
129
38
172
129
39
172
129
40
173
129
39
173
128
40
173
128
41
174
127
42
174
127
42
175
127
42
175
127
43
176
126
43
176
126
44
177
126
44
177
125
45
177
125
46
177
125
46
178
125
47
178
124
47
178
124
48
179
123
48
180
123
49
180
122
49
181
122
50
181
122
51
181
122
51
182
121
52
182
121
53
183
120
53
183
120
54
184
119
54
184
119
55
185
119
57
185
118
57
185
118
58
185
118
59
186
118
60
186
117
60
186
117
62
187
116
61
187
116
62
188
115
62
188
115
64
189
114
65
189
114
66
190
114
66
190
113
67
190
113
68
190
112
69
191
112
69
191
111
70
191
111
71
192
110
72
192
110
73
193
109
73
193
109
75
194
108
76
194
108
77
194
108
77
194
107
79
195
106
79
195
105
81
196
105
81
196
104
82
196
104
83
197
103
84
197
103
86
198
102
85
198
102
87
198
101
88
198
101
89
199
101
90
199
100
91
200
99
91
200
98
93
201
98
94
201
97
95
201
97
96
201
96
97
202
96
98
202
95
98
202
95
100
203
93
100
203
93
103
204
92
103
204
92
105
204
91
105
204
91
106
205
90
107
205
90
108
206
89
109
206
88
110
206
88
112
206
87
113
206
86
114
207
86
114
207
85
116
208
85
116
208
85
119
208
82
119
208
82
121
209
82
121
209
81
123
210
80
124
210
79
125
210
79
126
210
79
127
210
78
129
211
76
129
211
76
131
211
75
132
211
75
134
212
74
134
212
74
135
213
72
136
213
72
138
213
71
139
213
70
141
214
69
141
214
69
142
214
68
144
214
67
145
214
67
146
215
66
147
215
65
149
215
64
149
215
64
151
216
63
151
216
62
153
216
61
155
216
61
156
217
60
157
217
59
158
217
58
159
217
57
160
218
56
162
218
56
163
218
55
165
218
54
165
218
54
167
219
51
167
219
52
169
219
51
170
219
51
172
220
49
173
220
49
174
220
48
175
220
47
176
221
46
178
221
45
179
221
44
181
221
43
182
221
44
183
221
42
183
221
42
185
222
41
186
222
40
188
222
39
189
222
39
190
223
38
191
223
37
193
223
36
194
223
37
196
223
35
197
223
35
198
223
34
199
224
33
200
224
33
202
224
32
203
224
32
205
224
30
205
224
31
206
225
30
207
225
29
209
225
29
210
225
28
211
225
29
212
225
27
213
225
27
215
226
25
216
226
26
218
226
26
219
226
25
220
226
25
220
226
25
222
227
26
223
227
26
224
227
26
225
227
25
227
227
26
228
227
26
230
228
26
231
228
27
232
228
27
