P3
# Created by GIMP version 2.10.22 PNM plug-in
1024 1
255
25
25
25
25
25
25
26
26
26
26
26
26
26
26
26
27
27
27
27
27
27
28
28
28
28
28
28
28
28
28
29
29
29
29
29
29
30
30
30
30
30
30
30
30
30
31
31
31
31
31
31
32
32
32
32
32
32
33
33
33
33
33
33
33
33
33
34
34
34
34
34
34
35
35
35
35
35
35
35
35
35
36
36
36
36
36
36
37
37
37
37
37
37
37
37
37
38
38
38
38
38
38
39
39
39
39
39
39
39
39
39
40
40
40
40
40
40
41
41
41
41
41
41
41
41
41
42
42
42
42
42
42
43
43
43
43
43
43
43
43
43
44
44
44
44
44
44
45
45
45
45
45
45
45
45
45
46
46
46
46
46
46
47
47
47
47
47
47
47
47
47
48
48
48
48
48
48
49
49
49
49
49
49
49
49
49
50
50
50
50
50
50
51
51
51
51
51
51
51
51
51
52
52
52
52
52
52
53
53
53
53
53
53
53
53
53
54
54
54
54
54
54
55
55
55
55
55
55
55
55
55
56
56
56
56
56
56
57
57
57
57
57
57
58
58
58
58
58
58
58
58
58
59
59
59
59
59
59
60
60
60
60
60
60
60
60
60
61
61
61
61
61
61
62
62
62
62
62
62
62
62
62
63
63
63
63
63
63
63
63
63
64
64
64
64
64
64
65
65
65
65
65
65
65
65
65
66
66
66
66
66
66
67
67
67
67
67
67
67
67
67
68
68
68
68
68
68
69
69
69
69
69
69
69
69
69
70
70
70
70
70
70
71
71
71
71
71
71
71
71
71
72
72
72
72
72
72
73
73
73
73
73
73
73
73
73
74
74
74
74
74
74
75
75
75
75
75
75
75
75
75
76
76
76
76
76
76
77
77
77
77
77
77
77
77
77
78
78
78
78
78
78
79
79
79
79
79
79
79
79
79
80
80
80
80
80
80
81
81
81
81
81
81
81
81
81
82
82
82
82
82
82
83
83
83
83
83
83
83
83
83
84
84
84
84
84
84
85
85
85
85
85
85
85
85
85
86
86
86
86
86
86
87
87
87
87
87
87
87
87
87
88
88
88
88
88
88
89
89
89
89
89
89
90
90
90
90
90
90
90
90
90
91
91
91
91
91
91
92
92
92
92
92
92
92
92
92
93
93
93
93
93
93
94
94
94
94
94
94
94
94
94
95
95
95
95
95
95
96
96
96
96
96
96
96
96
96
97
97
97
97
97
97
98
98
98
98
98
98
98
98
98
99
99
99
99
99
99
100
100
100
100
100
100
100
100
100
101
101
101
101
101
101
102
102
102
102
102
102
102
102
102
103
103
103
103
103
103
104
104
104
104
104
104
104
104
104
105
105
105
105
105
105
106
106
106
106
106
106
106
106
106
107
107
107
107
107
107
108
108
108
108
108
108
108
108
108
109
109
109
109
109
109
110
110
110
110
110
110
110
110
110
111
111
111
111
111
111
112
112
112
112
112
112
112
112
112
113
113
113
113
113
113
114
114
114
114
114
114
114
114
114
115
115
115
115
115
115
116
116
116
116
116
116
117
117
117
117
117
117
117
117
117
118
118
118
118
118
118
119
119
119
119
119
119
119
119
119
120
120
120
120
120
120
121
121
121
121
121
121
121
121
121
122
122
122
122
122
122
123
123
123
123
123
123
123
123
123
124
124
124
124
124
124
125
125
125
125
125
125
125
125
125
126
126
126
126
126
126
127
127
127
127
127
127
127
127
127
128
128
128
128
128
128
128
128
128
129
129
129
129
129
129
130
130
130
130
130
130
130
130
130
131
131
131
131
131
131
132
132
132
132
132
132
132
132
132
133
133
133
133
133
133
134
134
134
134
134
134
134
134
134
135
135
135
135
135
135
136
136
136
136
136
136
136
136
136
137
137
137
137
137
137
138
138
138
138
138
138
138
138
138
139
139
139
139
139
139
140
140
140
140
140
140
140
140
140
141
141
141
141
141
141
142
142
142
142
142
142
142
142
142
143
143
143
143
143
143
144
144
144
144
144
144
144
144
144
145
145
145
145
145
145
146
146
146
146
146
146
147
147
147
147
147
147
147
147
147
148
148
148
148
148
148
149
149
149
149
149
149
149
149
149
150
150
150
150
150
150
151
151
151
151
151
151
151
151
151
152
152
152
152
152
152
153
153
153
153
153
153
153
153
153
154
154
154
154
154
154
155
155
155
155
155
155
155
155
155
156
156
156
156
156
156
157
157
157
157
157
157
157
157
157
158
158
158
158
158
158
159
159
159
159
159
159
159
159
159
160
160
160
160
160
160
161
161
161
161
161
161
161
161
161
162
162
162
162
162
162
163
163
163
163
163
163
163
163
163
164
164
164
164
164
164
165
165
165
165
165
165
165
165
165
166
166
166
166
166
166
167
167
167
167
167
167
167
167
167
168
168
168
168
168
168
169
169
169
169
169
169
169
169
169
170
170
170
170
170
170
171
171
171
171
171
171
171
171
171
172
172
172
172
172
172
173
173
173
173
173
173
174
174
174
174
174
174
174
174
174
175
175
175
175
175
175
176
176
176
176
176
176
176
176
176
177
177
177
177
177
177
178
178
178
178
178
178
178
178
178
179
179
179
179
179
179
180
180
180
180
180
180
180
180
180
181
181
181
181
181
181
182
182
182
182
182
182
182
182
182
183
183
183
183
183
183
184
184
184
184
184
184
184
184
184
185
185
185
185
185
185
186
186
186
186
186
186
186
186
186
187
187
187
187
187
187
188
188
188
188
188
188
188
188
188
189
189
189
189
189
189
190
190
190
190
190
190
190
190
190
191
191
191
191
191
191
191
191
191
192
192
192
192
192
192
193
193
193
193
193
193
193
193
193
194
194
194
194
194
194
195
195
195
195
195
195
195
195
195
196
196
196
196
196
196
197
197
197
197
197
197
197
197
197
198
198
198
198
198
198
199
199
199
199
199
199
199
199
199
200
200
200
200
200
200
201
201
201
201
201
201
201
201
201
202
202
202
202
202
202
203
203
203
203
203
203
203
203
203
204
204
204
204
204
204
205
205
205
205
205
205
206
206
206
206
206
206
206
206
206
207
207
207
207
207
207
208
208
208
208
208
208
208
208
208
209
209
209
209
209
209
210
210
210
210
210
210
210
210
210
211
211
211
211
211
211
212
212
212
212
212
212
212
212
212
213
213
213
213
213
213
214
214
214
214
214
214
214
214
214
215
215
215
215
215
215
216
216
214
218
217
211
221
218
204
225
220
194
229
222
178
234
224
155
240
228
116
244
229
48
243
229
32
242
229
31
241
229
29
240
229
29
238
229
28
237
229
28
236
228
27
236
228
27
234
228
27
233
228
25
232
228
26
231
228
25
230
228
26
228
227
26
227
227
25
225
227
25
224
227
26
223
227
26
222
227
26
220
226
25
220
226
25
219
226
25
218
226
26
216
226
26
215
226
26
213
225
27
212
225
28
211
225
27
210
225
28
209
225
29
207
225
30
206
225
30
205
224
29
205
224
30
203
224
31
202
224
31
200
224
32
199
224
32
198
223
33
197
223
34
196
223
35
194
223
35
193
223
36
191
223
37
190
223
37
189
222
38
188
222
39
186
222
39
185
222
40
183
221
42
183
221
42
182
221
43
181
221
44
179
221
45
178
221
46
176
221
46
175
220
47
174
220
48
173
220
49
172
220
49
170
219
51
169
219
50
167
219
51
167
219
52
165
218
54
165
218
53
163
218
55
162
218
56
160
218
56
159
217
57
158
217
58
157
217
58
156
217
59
154
216
61
153
216
61
151
216
63
151
216
63
149
215
64
149
215
63
147
215
65
146
215
66
145
214
67
144
214
68
142
214
69
141
214
68
141
214
69
139
213
71
138
213
71
136
213
71
136
213
72
134
212
73
134
212
74
132
211
75
131
211
75
129
211
77
129
211
76
127
210
78
126
210
78
125
210
79
124
210
79
123
210
80
121
209
82
121
209
82
119
208
82
119
208
82
116
208
85
116
208
85
114
207
85
114
207
85
113
206
86
112
206
86
110
206
88
109
206
89
108
206
89
107
205
90
106
205
90
105
204
91
105
204
91
103
204
92
103
204
92
100
203
93
100
203
93
98
202
95
98
202
95
97
202
96
96
201
96
95
201
97
94
201
97
93
201
98
91
200
98
91
200
99
90
199
100
89
199
101
87
198
101
87
198
101
86
198
102
85
198
102
84
197
103
84
197
103
82
196
104
81
196
104
80
196
105
80
195
105
79
195
106
77
194
107
77
194
108
75
194
108
75
194
108
74
193
109
73
193
109
71
192
110
71
192
110
69
191
111
69
191
111
69
191
112
69
190
112
67
190
113
67
190
113
66
190
114
65
189
114
64
189
114
62
188
115
63
188
115
61
187
116
61
187
116
60
186
117
59
186
117
58
186
118
58
185
118
58
185
118
57
185
118
55
185
119
55
184
119
55
184
119
54
183
120
54
183
120
52
182
121
51
182
121
51
181
122
50
181
122
49
181
122
49
180
122
48
180
123
48
179
123
47
178
124
47
178
124
46
178
125
45
177
125
45
177
125
44
177
125
43
177
126
44
176
126
43
176
126
42
175
127
41
175
127
42
174
127
41
174
127
40
173
128
40
173
128
39
173
129
39
172
129
38
172
129
38
171
129
38
171
130
36
170
130
37
170
130
37
169
130
36
169
130
36
168
131
36
168
131
35
167
132
35
167
132
35
167
132
34
167
132
35
167
133
34
166
133
34
166
133
34
165
133
33
165
133
34
164
133
33
164
133
32
163
134
32
163
134
32
162
134
33
162
134
33
162
135
33
161
135
32
161
135
32
160
135
32
160
136
31
159
136
31
159
136
31
158
136
32
158
136
31
157
136
31
157
136
32
156
137
31
156
137
32
156
137
31
155
137
31
154
137
31
154
137
31
153
138
31
153
138
31
153
138
31
153
138
30
153
138
32
152
138
32
152
138
31
151
138
32
151
138
32
150
139
32
150
139
32
149
139
31
149
139
32
148
139
32
148
139
33
148
139
32
147
139
32
147
140
32
146
140
33
146
140
34
145
140
34
145
140
33
144
140
34
144
140
33
143
140
34
143
140
34
142
140
35
142
140
34
142
140
34
141
140
35
141
141
34
140
141
35
140
141
36
139
141
35
139
141
36
138
141
35
138
141
35
137
141
36
137
141
37
137
141
36
137
141
36
137
141
36
136
141
36
136
141
36
135
141
36
135
141
37
134
141
37
134
141
37
133
141
37
133
141
37
132
141
38
132
141
38
131
141
38
131
141
38
130
142
39
130
142
39
129
142
40
129
142
39
128
142
38
128
142
39
128
142
39
127
142
39
127
142
40
126
142
40
126
142
40
125
142
40
125
142
40
124
142
40
124
142
42
124
143
41
123
142
41
122
142
42
122
142
41
122
142
41
122
142
42
122
142
43
121
142
42
121
142
42
120
142
42
120
142
43
119
142
43
119
142
43
118
142
43
118
142
43
117
142
44
117
142
43
117
142
44
116
142
44
116
142
44
115
142
44
115
142
45
114
142
45
114
142
46
113
142
45
113
142
45
112
142
45
112
142
46
111
142
46
111
142
46
111
142
45
110
142
47
110
142
46
109
142
46
109
142
46
108
142
47
108
142
47
107
142
47
107
142
48
106
141
47
106
141
48
105
141
48
105
141
48
104
141
48
104
141
49
103
141
49
103
141
50
102
141
50
102
141
50
102
141
50
101
141
50
101
141
50
100
141
50
100
141
51
99
141
50
99
141
50
98
141
50
98
141
52
97
141
51
97
141
51
96
141
52
96
141
52
96
141
53
95
141
52
95
141
52
94
141
53
94
141
54
93
140
54
93
140
54
92
140
54
92
140
55
91
140
55
91
140
55
90
140
55
90
140
55
90
140
55
89
140
56
89
140
56
88
140
56
88
140
57
88
140
57
88
140
57
86
139
56
86
139
57
85
139
58
85
139
58
84
139
58
85
139
59
84
139
59
84
139
58
83
139
59
82
139
59
82
139
60
82
138
59
81
138
59
80
138
60
80
138
60
79
138
61
79
138
60
77
138
61
78
138
62
77
138
62
77
137
61
76
137
61
75
137
62
75
137
61
74
137
62
74
137
62
73
137
63
73
137
63
73
136
62
72
136
63
71
136
63
71
136
63
69
135
63
69
135
65
69
135
65
69
135
65
68
135
65
68
135
65
67
135
66
67
134
66
66
134
65
65
134
66
66
134
67
65
133
67
64
133
66
62
133
67
63
133
67
62
132
66
61
132
67
61
132
67
60
132
67
60
132
67
59
131
67
59
131
68
59
131
67
58
131
68
58
130
68
57
130
69
56
129
69
56
129
69
55
129
70
55
129
69
54
129
69
53
128
69
53
128
70
53
127
69
51
127
69
51
127
70
50
127
70
50
126
70
49
126
71
49
125
71
48
125
70
47
124
70
48
124
70
46
124
71
46
124
71
45
123
72
45
123
72
44
122
71
44
122
72
44
122
72
44
121
72
43
121
72
41
120
72
41
120
71
40
119
71
40
119
72
39
118
71
39
118
71
38
117
72
38
117
72
36
116
73
36
116
73
36
116
72
35
115
73
35
115
72
34
114
72
33
114
72
33
113
73
33
113
72
31
112
73
32
112
72
30
111
73
30
111
72
29
110
73
30
110
72
28
109
72
28
108
73
28
108
73
28
107
72
26
107
71
24
106
71
25
106
72
24
105
72
24
105
72
23
103
71
22
103
71
22
102
71
22
102
72
22
102
71
19
101
72
20
100
71
18
99
71
17
98
71
16
98
71
18
98
70
17
97
70
15
97
71
15
95
71
14
95
71
15
94
71
14
94
70
12
93
70
11
92
69
10
91
69
9
91
69
9
90
70
9
90
70
9
89
70
8
89
69
10
88
69
7
88
69
7
87
68
4
85
68
4
85
68
4
84
48
2
64
