/* XPM */
static const char * gxsmwatermark_xpm[] = {
"119 120 3 1",
" 	c None",
".	c #C6BCDB",
"+	c #6A68C1",
"                                                                                                                       ",
"                                                                                                                       ",
"                                                                                                                       ",
"                                                                                                                       ",
"                                                                                                                       ",
"                                                                                                                       ",
"                                                                                                                       ",
"                                                                                                                       ",
"                                                                                                                       ",
"                                                            .  .    .                                                  ",
"                                           .       .            .  .                                                   ",
"                                                            .       .                                                  ",
"                                                                                                                       ",
"                                           .               .    .  .                                                   ",
"                                  .       . .  .            .  . .  .               .                                  ",
"                                           .    .          .    .  . .                                                 ",
"                                                 .               .  .                                                  ",
"                                       .  . .  .  .    .    .  . .. .                                                  ",
"                                   .  . .  . .. .  .    .  . .. .  . .. .                                              ",
"                                    .  .  . .  . .. .  . .. .  . .. .                                                  ",
"                                   .    .  . .. . .. .. .  . .... .. .                                                 ",
"                                   .  . .. . .. .. . .. .... .. .... .                                                 ",
"                                  . .. .  . .. . .. .  . .. .  . .. .  .                 .  .                          ",
"                                   .  . .. . .. .. . .. .... .. .... .                                                 ",
"                                    .. . .. ....... . ...............                                                  ",
"                                       .... .......    . .......... .                                                  ",
"                                 . .  . .. . .. .  .    .  . .. ....                    .    .       .                 ",
"                                  .    . .. .. . ..    .  . . .. .. .                                                  ",
"                                   .    .  . .. .          . .. .                                                      ",
"                                 . ..      .                                                                           ",
"                          .    .  . ..         .    .               .  .    .    .  .    .  .    .  .                  ",
"                              . .. . ..    .    .               .  . .  .    .  .    .  .    .  . .  .                 ",
"                               .... ..                              .  . .  .    .  .    .  .    .                     ",
"                               .........     .                         .... ............ .  .                          ",
"                           .  . .. ....    ....                 .  . .. .... ....... .... .. .  . .  .                 ",
"                          . .. .... .. .  . .                  . .  . .. .. . .. .... .. .  . .. .  . .  .             ",
"                           .  . ....... .  .               .    .  . ....... ....... . .. .. .  . .  .                 ",
"                            ............                         .    ....................... ..                       ",
"                             . .........               .    .  . .. . .......  ...... .. .. .  . .  . .  .             ",
"                              . .. ....            .    .  . .. .  . ....... . ..... .... .. .  . .. .  . .            ",
"                               . .. .. .            .  .    .  . .  . ....... .......... .  . .  .  . .  .             ",
"                                .  .                               ....................                                ",
"                              .                    .    .  .    .  . ....... .........  .    .  .    .                 ",
"          .                    .  .    .       .  . .  . .. .  . .. ......... .. .... .  .  . .  .  . .  .    .        ",
"                              . .. .            .  .    .  . .  .  . ....... ....... .  . .  .  . .  .    .            ",
"                               ....                              ............ .....                                    ",
"                             . ....                 .  .    .  . .. ....... ......  .    .  .    .       .             ",
"                   .  .  . .  . .. .  .       . .  .  . .  . .. . .......... ....  . .  . .. .  .    .  . .  .         ",
"          .          . .  . .. .... .          .  . .  . .. .  . .......... .... .  . .  .  . .  .  . .  .             ",
"                      . ............               .    .  . .................. .                                      ",
"                      . .............              .  . .  . ............ ....  .       .            .                 ",
"          .  .    .  . .  . ....... .. .       .  . .  . .. ............ .. .  . .  .  . .       .  . .  .  . .        ",
"         .    .    .  . .. .........  .    .  . .  . .. . ............. . .. .  .    .  .    .  . .  .  . .  .         ",
"                       .  . ....... .               .  . ............... .. .            .       .  .    .             ",
"                          . .......                   ................ . .                                             ",
"         . .  .  . .  .    .  . .. .  .       . .  .  . ............ .. .  . .  .    .  .    .  . .  .  . .  .         ",
"          .       .  . .  . .. .  . .  .       .    .  ......... .. . .. .  .    .  .  . .  . .  .  . .  .    .        ",
"                   .  .    .  .    .  .         .  . .......... . .. .. .               .    .  .    .    .            ",
"                                                     ....................                  .                           ",
"          .  .    .  . .  .    .  . .  .       .  . .......... . .. ....                 ....    .    .  .             ",
"      .  . .  .  . .  .    .  .    .  .    .    .  . ....... .. .... .. .               . .. .  . .  .  . .  .         ",
"          .    .  .    .  .    .               .  . ......... .........                  .... .  .    .  .             ",
"                                                   . ....... ..........                 ......                         ",
"         . .  .  . .  .    .  .    .  .         .  . ....... ..........              .  . ..... .         .  .         ",
"          .  . .  .    .  . .. .  . .  .  .    .  . ....... . .. .... .. .  .  . .  . .. .... .. .  . .  .  . .        ",
"           .  .  . .  .    .  . .  .  .    .    .  . ....... ....... .. .  . .  .    .  . ....  . .       .  .         ",
"                                                    .................... .            ..........                       ",
"          .       .    .  .    .  .    .          . ....... ............ .. .    .  .  ......... .       .             ",
"      .  . .  .  . .  .  . .  . .  .  . .  .  . .  . .. .... ....... .. . .. .  .  . .  .... .  . .  .  . .  .         ",
"          .    .  .  . .  .    .  . .  .    .  .  . .  . .. . .. .. ....... .    .  . .. .... .. .  . .  .             ",
"                      .                            . .  .... ..............          . ........                        ",
"                      .       .    .       .       .  . .... .. ............         .......... .    .                 ",
"          .  . .  .  . .  .    .  .    .  . .  .  . .  . .. .  . .. .  . .       .  . ....... .  .  . .. .  . .        ",
"           .  .  . .  .    .  . .. .    .  .  . .  .  . .  . .. .  . .  .       .  . ....... .  . .  .  . .  .         ",
"                                  .         ..      .  . .  .                       . ....... .     . .                ",
"                  .       .    .             . .       .    .                       .........    .  .    .             ",
"         .    .  . .  .    .  . .. .  . .  .  . .  .  . .  . .  .               .  . .... .. .  . .. .  .    .         ",
"          .  . .  .    .  . .. .  . .  .  . .  .  . .  . .. .  .    .            .  . .. .... .  .  . .  .             ",
"                           .  .    .       . .. .  .    .  .    .               . .......... .  . .  .                 ",
"                              .            .  . .                               . ..........    .  .                   ",
"          .  . .  .       .    .  . .  .  . .  . .. .  .    .  . .. .  . .  .  . .. .... .. . .. .  . .  .             ",
"           .  .  . .  .    .  . .  .  . .  . .. .  .  . .  . .  .  . .  .  . .  . ....... .. .  . .  .  .              ",
"                  .            .       .  ...  . .. .  .    .       .  . .  .  . ....... .  . .. .  . .                ",
"                                        ...... .........                       ............ . ..                       ",
"              .    .  .    .  .    .  . .... .. .. . .. .  .    .  . .  .  . .. .... .... .. .  . .  .                 ",
"          .  . .  .    .  . .  .  . .. .... .. . .. .. . .. .  . .. .  . .  . .. .... .. .  . .. .  . .  .             ",
"                   .  .    .  .    . .......... .  . .. .  . .  .  . .  .  . ....... .... .. .  . .  .                 ",
"                                 ............................... .  .    ................. .. .                        ",
"                  .    .  .    .... ............... ....... .... .. .... .. ......... .. .  .    .  .                  ",
"              .  . .  .  . .  . .. . .. .... .. .. . .. .... .. .... .. . .. .... .. .  . .. .  . .  .                 ",
"                  .    .  .    . .. ............... .  . ....................... .... .. .  . .  .                     ",
"                                ..   .  . .. .. ....    .......           .........                                    ",
"                                           .               ..     ++++++     ....            .  .                      ",
"                  ++++++++++        +++++   .  .  +++++  ..     +++++++++++   ..   ++++++   . .  .     ++++++          ",
"                +++++++++++++++ .   ++++++    .   ++++++   .  ++++++++++++++ .. . +++++++    .  .      ++++++          ",
"              +++++++++++++++++     +++++++      ++++++       ++++++++++++++  ..  ++++++++            +++++++          ",
"             +++++++++   ++++++      ++++++     ++++++       ++++++     ++++      ++++++++            +++++++          ",
"             ++++++         ++  ..    ++++++   ++++++   .    ++++        ++  .  . +++++++++  .       ++++++++          ",
"            ++++++     .     +    .    ++++++  ++++++  . ..  ++++   .             +++++++++          ++++++++          ",
"            +++++                      ++++++ ++++++    .    ++++                 ++++++++++         +++ ++++          ",
"           ++++++                       +++++++++++          +++++                +++++ ++++        ++++ ++++          ",
"           +++++          .    .  .      +++++++++     .  .  ++++++         .  .  +++++ ++++        ++++ ++++          ",
"           +++++           .  .    .  .   ++++++++    . .    ++++++++++      .  . +++++ +++++      ++++  ++++          ",
"           +++++               .          +++++++   .  .      ++++++++++++        +++++  ++++      ++++  ++++          ",
"           +++++                           ++++++              ++++++++++++       +++++  +++++     ++++  ++++          ",
"           +++++                   .  .   +++++++     . .  .    ++++++++++++    . +++++   ++++    ++++   ++++          ",
"           +++++       ++++++++   .      +++++++++     .    .     +++++++++++     +++++   ++++    ++++   ++++          ",
"           +++++       ++++++++          ++++++++++                   +++++++     +++++   +++++  ++++    ++++          ",
"           +++++       ++++++++         +++++ ++++++                    +++++     +++++    ++++  ++++    ++++          ",
"           ++++++         +++++        ++++++  +++++   .    .  .    .    ++++     +++++    ++++  ++++    ++++          ",
"            +++++         +++++        +++++   ++++++   .          .     ++++     +++++     ++++++++     ++++          ",
"            ++++++        +++++       +++++     ++++++       ++          ++++     +++++     ++++++++     ++++          ",
"             ++++++       +++++      ++++++      ++++++      +++        +++++     +++++     +++++++      ++++          ",
"             ++++++++++++++++++     ++++++       +++++++    ++++++++  +++++++     +++++      ++++++      ++++          ",
"              +++++++++++++++++     +++++         ++++++    ++++++++++++++++      +++++      ++++++      ++++          ",
"                +++++++++++++++    ++++++          ++++++    +++++++++++++++      +++++       ++++       ++++          ",
"                  ++++++++++       +++++            +++++      +++++++++++         +++                    +++          ",
"                                                                   ++++                                                ",
"                                                                                                                       ",
"                                                                                                                       "};
